<svg xmlns="http://www.w3.org/2000/svg" viewBox="0 0 100 100">
  <rect width="100" height="100" rx="20" fill="#18181b"/>
  <svg x="20" y="20" width="60" height="60" viewBox="0 0 24 24" fill="none" stroke="white" stroke-width="2" stroke-linecap="round" stroke-linejoin="round">
    <rect x="3" y="8" width="18" height="4" rx="1"/>
    <path d="M12 8v13"/>
    <path d="M19 12v7a2 2 0 0 1-2 2H7a2 2 0 0 1-2-2v-7"/>
    <path d="M7.5 8a2.5 2.5 0 0 1 0-5A4.8 8 0 0 1 12 8a4.8 8 0 0 1 4.5-5 2.5 2.5 0 0 1 0 5"/>
  </svg>
</svg>
